<?xml version="1.0" encoding="utf-8"?>
<!-- Generator: Adobe Illustrator 28.3.0, SVG Export Plug-In . SVG Version: 6.00 Build 0)  -->
<svg version="1.1" id="Logos" xmlns="http://www.w3.org/2000/svg" xmlns:xlink="http://www.w3.org/1999/xlink" x="0px" y="0px"
	 viewBox="0 0 800 400" style="enable-background:new 0 0 800 400;" xml:space="preserve">
<style type="text/css">
	.st0{fill:#14154C;}
	.st1{fill:none;stroke:url(#SVGID_1_);stroke-width:8.45;stroke-linecap:round;stroke-linejoin:round;}
</style>
<path class="st0" d="M272.8,81h14.5v37.1L318.5,81h16.7l-32,38.1l33.5,39.9h-17.3l-32.2-38.9V159h-14.5L272.8,81L272.8,81z"/>
<path class="st0" d="M353.4,135.9c0.9,8.4,6.2,14,16.2,14c6.8,0,12-3,14.7-7.2h13c-3.8,9.9-14.5,17.6-27.8,17.6
	c-18.9,0-30-12.6-30-29.2s12.1-29.1,29.3-29.1s29.2,12.1,29.2,29.3v4.6H353.4z M353.2,126.7h31.4c-0.9-8.6-6.6-14.6-15.6-14.6
	S354.4,117.7,353.2,126.7z"/>
<path class="st0" d="M424.1,159h-14v-55.6h13.6v9.5c2.6-6.5,9.4-10.8,18-10.8s14.6,4.1,17.7,10.8c4.2-6.9,11.1-10.8,20.2-10.8
	c13.4,0,20.3,9.8,20.3,23.6V159h-14v-31c0-7.9-3-13.7-11.4-13.7c-7.6,0-12.5,5.4-12.5,13V159h-14v-31c0-7.9-3-13.7-11.4-13.7
	c-7.7,0-12.5,5.6-12.5,13.6L424.1,159L424.1,159z"/>
<path class="st0" d="M528.8,182.3h-14v-78.9h13.5v9.6c3.2-5.7,10.6-10.9,20.3-10.9c16.5,0,28.1,13.1,28.1,29.2s-11.6,29.1-28.1,29.1
	c-9.7,0-16.9-4.9-19.7-10.9L528.8,182.3L528.8,182.3z M545.7,113.7c-9.1,0-16.9,6.9-16.9,17.6s7.8,17.5,16.9,17.5
	c10,0,16.8-7.8,16.8-17.5S555.7,113.7,545.7,113.7z"/>
<path class="st0" d="M602.5,159h-14v-55.6h13.6v9.5c2.6-6.5,9.8-10.8,18.5-10.8c13.4,0,20.8,9.8,20.8,23.6V159h-14v-31
	c0-7.9-3.6-13.7-11.9-13.7c-7.7,0-12.9,5.6-12.9,13.6L602.5,159L602.5,159z"/>
<path class="st0" d="M666.6,135.9c0.9,8.4,6.2,14,16.2,14c6.8,0,12-3,14.7-7.2h13c-3.8,9.9-14.5,17.6-27.8,17.6
	c-19,0-30-12.6-30-29.2s12.2-29.1,29.3-29.1s29.2,12.1,29.2,29.3v4.6H666.6z M666.5,126.7h31.4c-0.9-8.6-6.6-14.6-15.6-14.6
	S667.6,117.7,666.5,126.7L666.5,126.7z"/>
<path class="st0" d="M756.9,116.9h-3c-11.3,0-16.5,6.6-16.5,17.4V159h-14v-55.6h13.6v12c2.7-8.8,10.1-12.5,20-12.5L756.9,116.9
	L756.9,116.9z"/>
<path class="st0" d="M272.8,177.4h3.2v28h-3.2V177.4z"/>
<path class="st0" d="M287.3,177.4h2.5l18.3,23v-23h3v28h-2.5l-18.3-23v23h-3V177.4z"/>
<path class="st0" d="M323.7,197.7c0.6,3.4,2.9,5.7,6.8,5.7s6.4-2.4,6.4-5.4s-2-4.5-4.9-5.3l-3.5-1c-4.1-1.2-7-3.4-7-7.4
	c0-4.5,3.8-7.4,8.7-7.4s8.3,3.3,8.6,7.6h-2.9c-0.4-2.9-2.4-5-5.8-5s-5.6,1.8-5.6,4.8s2.1,4,5,4.8l3.3,1c4.4,1.2,7,3.5,7,7.8
	c0,4.8-4,8.1-9.5,8.1s-9.1-3.4-9.8-8.3L323.7,197.7L323.7,197.7z"/>
<path class="st0" d="M367.7,180.2h-9.1v25.2h-3.2v-25.2h-9.1v-2.8h21.5V180.2z"/>
<path class="st0" d="M376.8,177.4h3.2v28h-3.2V177.4z"/>
<path class="st0" d="M410.6,180.2h-9.1v25.2h-3.2v-25.2h-9.1v-2.8h21.5V180.2z"/>
<path class="st0" d="M442.8,194.9c0,6.4-4.8,11.1-11.6,11.1s-11.6-4.7-11.6-11.1v-17.4h3.2V195c0,4.9,3.4,8.2,8.4,8.2
	s8.4-3.3,8.4-8.2v-17.6h3.2L442.8,194.9L442.8,194.9z"/>
<path class="st0" d="M473.2,180.2H464v25.2h-3.2v-25.2h-9.1v-2.8h21.5V180.2z"/>
<path class="st0" d="M482.1,177.4h17.7v2.8h-14.5v9.6h14.1v2.8h-14.1v10H500v2.8h-17.8V177.4L482.1,177.4z"/>
<radialGradient id="SVGID_1_" cx="135.555" cy="177.505" r="95.0677" gradientTransform="matrix(1 0 0 -1 0 321)" gradientUnits="userSpaceOnUse">
	<stop  offset="0.26" style="stop-color:#FB264C"/>
	<stop  offset="1" style="stop-color:#14154C"/>
</radialGradient>
<path class="st1" d="M93.6,191.3c-4.2,7.1-8.3,14.3-12.5,21.4c-9.6-5.6-19.2-11.2-28.8-16.9c0-33.4,0-70.1,0-103.6
	c29.8-16.6,59.6-30,89.3-46.6c9.2,5.4,18.4,10.8,27.6,16.2 M111.6,116.8c-11.2,19.2-22.5,38.4-33.7,57.6c0-21.6,0-43.2,0-64.9
	c18.8-10.5,37.5-20.9,56.3-31.4c6.4,3.7,12.7,7.4,19.1,11.2c-13.5,23.1-27.1,46.2-40.6,69.3 M177.9,95.7c4.2-7.1,8.3-14.2,12.5-21.4
	c9.5,5.6,19,11.2,28.6,16.7c0,33.7,0,67.4,0,101.1c-29.7,16.4-59.4,32.7-89.1,49.1c-9.2-5.4-18.4-10.8-27.6-16.2 M159.8,170.2
	c11.2-19.2,22.4-38.3,33.7-57.5c0,21.6,0,43.1,0,64.7c-18.8,10.5-37.5,21-56.3,31.5c-6.4-3.7-12.7-7.4-19.1-11.2
	c13.5-23.1,27-46.2,40.6-69.3"/>
<path class="st0" d="M274.1,285.2V264h12.8v2.1h-10.4v7.6h10.1v2.1h-10.1v9.3H274.1z"/>
<path class="st0" d="M289,277.7c0-4.1,3.1-7.8,8-7.8s8,3.7,8,7.8c0,4.1-3.1,7.8-8,7.8S289,281.8,289,277.7z M291.3,277.7
	c0,3,2.2,5.8,5.8,5.8s5.8-2.8,5.8-5.8c0-3-2.2-5.8-5.8-5.8S291.3,274.7,291.3,277.7z"/>
<path class="st0" d="M316.7,272.4H316c-3.3,0-5.3,2.2-5.3,5.7v7h-2.4v-14.9h2.3v3.7c0.7-2.7,3-3.8,6-3.8V272.4L316.7,272.4z"/>
<path class="st0" d="M328.1,265.6h2.4v4.7h4.5v2h-4.5v8.3c0,2.1,0.7,3,2.5,3c0.7,0,1.2-0.1,1.8-0.3v1.9c-0.4,0.2-1.5,0.4-2.3,0.4
	c-3.5,0-4.4-2.1-4.4-5.7v-7.6h-3v-2h3L328.1,265.6L328.1,265.6z"/>
<path class="st0" d="M340.6,285.2h-2.4v-22.1h2.4v10.1c0.9-2.1,2.9-3.2,5.5-3.2c3.6,0,5.9,2.8,5.9,6.7v8.5h-2.4v-8.1
	c0-2.9-1.3-5.1-4.3-5.1c-2.8,0-4.8,2.2-4.8,5V285.2L340.6,285.2z"/>
<path class="st0" d="M358,278.7c0.4,3.1,2.4,5,5.5,5c2.3,0,4.1-1.1,5-2.5h2.2c-1.1,2.5-3.8,4.4-7.2,4.4c-4.9,0-7.9-3.5-7.9-7.8
	s3.2-7.8,7.8-7.8s7.7,3.4,7.7,7.7v1.1H358L358,278.7z M357.9,276.9h10.9c-0.2-3-2.2-5.2-5.4-5.2
	C360.5,271.7,358.3,273.8,357.9,276.9L357.9,276.9z"/>
<path class="st0" d="M383.5,279.3c0.5,2.6,2.2,4.3,5.1,4.3s4.8-1.8,4.8-4.1s-1.5-3.4-3.7-4l-2.6-0.8c-3.1-0.9-5.3-2.5-5.3-5.6
	c0-3.4,2.8-5.6,6.6-5.6s6.3,2.5,6.5,5.7h-2.2c-0.3-2.2-1.8-3.8-4.3-3.8s-4.2,1.4-4.2,3.6c0,2.2,1.6,3,3.8,3.6l2.5,0.8
	c3.3,0.9,5.3,2.6,5.3,5.9c0,3.6-3,6.2-7.2,6.2s-6.9-2.5-7.4-6.3L383.5,279.3L383.5,279.3z"/>
<path class="st0" d="M400.6,265.6h2.4v4.7h4.5v2h-4.5v8.3c0,2.1,0.7,3,2.5,3c0.7,0,1.2-0.1,1.8-0.3v1.9c-0.4,0.2-1.5,0.4-2.3,0.4
	c-3.5,0-4.4-2.1-4.4-5.7v-7.6h-3v-2h3L400.6,265.6L400.6,265.6z"/>
<path class="st0" d="M421.9,270.3h2.4v14.9H422v-2.9c-0.9,2.1-2.9,3.3-5.5,3.3c-3.6,0-5.9-2.8-5.9-6.7v-8.5h2.4v8.1
	c0,2.9,1.2,5,4.2,5c2.8,0,4.7-2.2,4.7-5L421.9,270.3L421.9,270.3z"/>
<path class="st0" d="M441.8,263.1h2.4v22.1h-2.3v-3c-0.9,1.7-3.2,3.4-6.2,3.4c-4.6,0-7.6-3.7-7.6-7.8c0-4.1,3.1-7.8,7.6-7.8
	c3,0,5.3,1.7,6.1,3.4V263.1L441.8,263.1z M436,283.6c2.9,0,5.8-2.1,5.8-5.9s-2.9-5.9-5.8-5.9c-3.4,0-5.7,2.7-5.7,5.9
	S432.6,283.6,436,283.6z"/>
<path class="st0" d="M459.3,270.3h2.5l-6.2,14.5l-2.8,6.6h-2.4l2.9-6.8l-6.1-14.3h2.4l4.9,11.9L459.3,270.3z"/>
<path class="st0" d="M471,277.7c0-4.1,3.1-7.8,8-7.8s8,3.7,8,7.8c0,4.1-3.1,7.8-8,7.8S471,281.8,471,277.7z M473.3,277.7
	c0,3,2.2,5.8,5.8,5.8s5.8-2.8,5.8-5.8c0-3-2.2-5.8-5.8-5.8S473.3,274.7,473.3,277.7z"/>
<path class="st0" d="M491.1,272.3h-2.8v-2h2.8v-2.1c0-3.7,1.6-5.4,5.1-5.4c0.6,0,1.5,0.1,1.8,0.2v2c-0.3-0.1-1-0.2-1.5-0.2
	c-2.4,0-3.2,1-3.2,3.5v2.1h4.5v2h-4.5v12.9h-2.4L491.1,272.3L491.1,272.3z"/>
<path class="st0" d="M508.2,264h1.9l13.8,17.4V264h2.2v21.2h-1.9l-13.8-17.4v17.4h-2.2C508.2,285.2,508.2,264,508.2,264z"/>
<path class="st0" d="M545.8,270.3v14.9h-2.3v-3c-0.9,1.7-3.2,3.4-6.2,3.4c-4.6,0-7.6-3.7-7.6-7.8s3.1-7.8,7.6-7.8
	c3,0,5.4,1.7,6.2,3.4v-3L545.8,270.3L545.8,270.3z M537.7,283.6c2.9,0,5.8-2.1,5.8-5.9s-2.9-5.9-5.8-5.9c-3.4,0-5.7,2.7-5.7,5.9
	S534.3,283.6,537.7,283.6z"/>
<path class="st0" d="M551.9,265.6h2.4v4.7h4.5v2h-4.5v8.3c0,2.1,0.7,3,2.5,3c0.7,0,1.2-0.1,1.8-0.3v1.9c-0.4,0.2-1.4,0.4-2.3,0.4
	c-3.5,0-4.4-2.1-4.4-5.7v-7.6h-3.1v-2h3.1L551.9,265.6L551.9,265.6z"/>
<path class="st0" d="M573.2,270.3h2.4v14.9h-2.3v-2.9c-0.9,2.1-2.9,3.3-5.5,3.3c-3.6,0-5.9-2.8-5.9-6.7v-8.5h2.4v8.1
	c0,2.9,1.2,5,4.2,5c2.8,0,4.7-2.2,4.7-5L573.2,270.3L573.2,270.3z"/>
<path class="st0" d="M588.7,272.4H588c-3.3,0-5.3,2.2-5.3,5.7v7h-2.4v-14.9h2.3v3.7c0.7-2.7,3.1-3.8,6-3.8V272.4L588.7,272.4z"/>
<path class="st0" d="M606.4,270.3v14.9h-2.3v-3c-0.9,1.7-3.2,3.4-6.2,3.4c-4.6,0-7.6-3.7-7.6-7.8s3.1-7.8,7.6-7.8
	c3,0,5.4,1.7,6.2,3.4v-3L606.4,270.3L606.4,270.3z M598.3,283.6c2.9,0,5.8-2.1,5.8-5.9s-2.9-5.9-5.8-5.9c-3.4,0-5.7,2.7-5.7,5.9
	S594.9,283.6,598.3,283.6z"/>
<path class="st0" d="M610.5,285.2v-22.1h2.4v22.1H610.5z"/>
<path class="st0" d="M289.7,325.2l-2.4-3.1c-1.5,2.1-3.8,3.6-6.8,3.6c-4.2,0-7.1-2.8-7.1-6.6s3-6.1,6.3-7l-6-7.9V304h13.7v1.9h-9.6
	l9.4,12.4l2.1-4.7h2.3l-3.1,6.5l3.7,5L289.7,325.2L289.7,325.2z M286.1,320.4l-5.3-7c-3,1-5.2,2.4-5.2,5.6c0,2.8,2.1,4.7,5,4.7
	C283.2,323.7,284.9,322.3,286.1,320.4L286.1,320.4z"/>
<path class="st0" d="M317.2,320.6h-11.1l-1.8,4.6h-2.5l8.9-21.2h2l8.9,21.2h-2.5L317.2,320.6L317.2,320.6z M307,318.6h9.4l-4.7-11.8
	L307,318.6L307,318.6z"/>
<path class="st0" d="M333.3,312.4h-0.6c-3.3,0-5.3,2.2-5.3,5.7v7H325v-14.9h2.3v3.7c0.7-2.7,3-3.8,6-3.8V312.4L333.3,312.4z"/>
<path class="st0" d="M337.9,305.6h2.4v4.7h4.5v2h-4.5v8.3c0,2.1,0.7,3,2.5,3c0.7,0,1.2-0.1,1.8-0.3v1.9c-0.4,0.2-1.5,0.4-2.3,0.4
	c-3.5,0-4.4-2.1-4.4-5.7v-7.6h-3v-2h3L337.9,305.6L337.9,305.6z"/>
<path class="st0" d="M349.3,303.7c0.9,0,1.5,0.7,1.5,1.5s-0.6,1.5-1.5,1.5s-1.5-0.7-1.5-1.5S348.4,303.7,349.3,303.7z M348.1,325.2
	v-14.9h2.4v14.9H348.1z"/>
<path class="st0" d="M356.7,312.3H354v-2h2.8v-2.1c0-3.7,1.6-5.4,5.1-5.4c0.7,0,1.4,0.1,1.7,0.2v2c-0.3-0.1-0.8-0.2-1.3-0.2
	c-2.4,0-3.1,1-3.1,3.5v2.1h4.3v2h-4.3v12.9h-2.4V312.3L356.7,312.3z M367.3,303.7c0.9,0,1.5,0.7,1.5,1.5s-0.6,1.5-1.5,1.5
	s-1.5-0.7-1.5-1.5S366.4,303.7,367.3,303.7z M366.1,325.2v-14.9h2.4v14.9H366.1z"/>
<path class="st0" d="M387.7,315.1h-2.3c-0.8-1.8-2.6-3.2-5.2-3.2c-3.5,0-5.6,2.8-5.6,5.8c0,3,2.1,5.8,5.6,5.8c2.7,0,4.3-1.4,5.2-3.2
	h2.3c-1,2.9-3.7,5.1-7.5,5.1c-4.8,0-8-3.5-8-7.8s3.1-7.8,8-7.8C384,309.9,386.8,312.2,387.7,315.1z"/>
<path class="st0" d="M392.7,303.7c0.9,0,1.5,0.7,1.5,1.5s-0.6,1.5-1.5,1.5s-1.5-0.7-1.5-1.5S391.8,303.7,392.7,303.7z M391.5,325.2
	v-14.9h2.4v14.9H391.5z"/>
<path class="st0" d="M413.9,310.3v14.9h-2.3v-3c-0.9,1.7-3.2,3.4-6.2,3.4c-4.6,0-7.6-3.7-7.6-7.8s3-7.8,7.6-7.8c3,0,5.4,1.7,6.2,3.4
	v-3L413.9,310.3L413.9,310.3z M405.8,323.6c2.9,0,5.8-2.1,5.8-5.9s-2.9-5.9-5.8-5.9c-3.5,0-5.7,2.7-5.7,5.9S402.3,323.6,405.8,323.6
	z"/>
<path class="st0" d="M418.7,325.2v-22.1h2.4v22.1H418.7z"/>
<path class="st0" d="M433.9,304h2.4v21.2h-2.4V304z"/>
<path class="st0" d="M444,325.2h-2.4v-14.9h2.3v2.9c0.8-2.1,2.9-3.3,5.6-3.3c3.6,0,5.9,2.8,5.9,6.7v8.5H453v-8.1
	c0-2.9-1.3-5.1-4.3-5.1c-2.8,0-4.8,2.2-4.8,5L444,325.2L444,325.2z"/>
<path class="st0" d="M461.3,305.6h2.4v4.7h4.5v2h-4.5v8.3c0,2.1,0.7,3,2.5,3c0.7,0,1.2-0.1,1.8-0.3v1.9c-0.4,0.2-1.4,0.4-2.3,0.4
	c-3.5,0-4.4-2.1-4.4-5.7v-7.6h-3.1v-2h3.1L461.3,305.6L461.3,305.6z"/>
<path class="st0" d="M472.6,318.7c0.4,3.1,2.4,5,5.5,5c2.3,0,4.1-1.1,5-2.5h2.2c-1.1,2.5-3.8,4.4-7.2,4.4c-4.9,0-7.9-3.5-7.9-7.8
	c0-4.3,3.2-7.8,7.8-7.8s7.7,3.4,7.7,7.6v1.1L472.6,318.7L472.6,318.7z M472.6,316.9h10.9c-0.2-3-2.2-5.2-5.4-5.2
	C475.1,311.7,472.9,313.8,472.6,316.9L472.6,316.9z"/>
<path class="st0" d="M489.5,325.2v-22.1h2.4v22.1H489.5z"/>
<path class="st0" d="M497.2,325.2v-22.1h2.4v22.1H497.2z"/>
<path class="st0" d="M505.6,303.7c0.9,0,1.5,0.7,1.5,1.5s-0.6,1.5-1.5,1.5s-1.5-0.7-1.5-1.5S504.7,303.7,505.6,303.7z M504.5,325.2
	v-14.9h2.4v14.9H504.5z"/>
<path class="st0" d="M527.2,310.3V325c0,3.8-3.3,6.8-7.8,6.8c-3.4,0-6.5-1.6-7.7-4.8h2.3c0.9,1.9,2.9,3,5.4,3c3.3,0,5.5-1.9,5.5-4.9
	v-3.7c-0.8,1.8-3.2,3.4-6.1,3.4c-4.6,0-7.4-3.4-7.4-7.4c0-4,2.9-7.4,7.4-7.4c3,0,5.3,1.6,6.1,3.5v-3.1L527.2,310.3L527.2,310.3z
	 M519.2,322.8c2.9,0,5.7-2.1,5.7-5.4s-2.8-5.5-5.7-5.5c-3.4,0-5.5,2.4-5.5,5.5S515.8,322.8,519.2,322.8z"/>
<path class="st0" d="M533.3,318.7c0.4,3.1,2.4,5,5.5,5c2.3,0,4.1-1.1,5-2.5h2.2c-1.1,2.5-3.8,4.4-7.2,4.4c-4.9,0-7.9-3.5-7.9-7.8
	c0-4.3,3.2-7.8,7.8-7.8s7.7,3.4,7.7,7.6v1.1L533.3,318.7L533.3,318.7z M533.3,316.9h10.9c-0.2-3-2.2-5.2-5.4-5.2
	C535.8,311.7,533.6,313.8,533.3,316.9L533.3,316.9z"/>
<path class="st0" d="M552.5,325.2h-2.4v-14.9h2.3v2.9c0.8-2.1,2.9-3.3,5.6-3.3c3.6,0,5.9,2.8,5.9,6.7v8.5h-2.4v-8.1
	c0-2.9-1.3-5.1-4.3-5.1c-2.8,0-4.8,2.2-4.8,5L552.5,325.2L552.5,325.2z"/>
<path class="st0" d="M583,315.1h-2.3c-0.8-1.8-2.6-3.2-5.2-3.2c-3.5,0-5.6,2.8-5.6,5.8c0,3,2.1,5.8,5.6,5.8c2.7,0,4.3-1.4,5.2-3.2
	h2.3c-1,2.9-3.7,5.1-7.5,5.1c-4.8,0-7.9-3.5-7.9-7.8s3.1-7.8,7.9-7.8C579.3,309.9,582,312.2,583,315.1z"/>
<path class="st0" d="M587.9,318.7c0.4,3.1,2.4,5,5.5,5c2.3,0,4.1-1.1,5-2.5h2.2c-1.1,2.5-3.8,4.4-7.2,4.4c-4.9,0-7.9-3.5-7.9-7.8
	c0-4.3,3.2-7.8,7.8-7.8s7.7,3.4,7.7,7.6v1.1L587.9,318.7L587.9,318.7z M587.9,316.9h10.9c-0.2-3-2.2-5.2-5.4-5.2
	C590.5,311.7,588.2,313.8,587.9,316.9L587.9,316.9z"/>
<path class="st0" d="M288.9,350.3v14.9h-2.3v-3c-0.9,1.7-3.2,3.4-6.2,3.4c-4.6,0-7.6-3.7-7.6-7.8s3-7.8,7.6-7.8c3,0,5.4,1.7,6.2,3.4
	v-3L288.9,350.3L288.9,350.3z M280.8,363.6c2.9,0,5.8-2.1,5.8-5.9s-2.9-5.9-5.8-5.9c-3.5,0-5.7,2.7-5.7,5.9S277.3,363.6,280.8,363.6
	z"/>
<path class="st0" d="M295,345.6h2.4v4.7h4.5v2h-4.5v8.3c0,2.1,0.7,3,2.5,3c0.7,0,1.2-0.1,1.8-0.3v1.9c-0.4,0.2-1.5,0.4-2.3,0.4
	c-3.5,0-4.4-2.1-4.4-5.7v-7.6h-3v-2h3L295,345.6L295,345.6z"/>
<path class="st0" d="M312.7,344h2.4v9.4h12.5V344h2.4v21.2h-2.4v-9.6h-12.5v9.6h-2.4V344z"/>
<path class="st0" d="M350.3,350.3v14.9H348v-3c-0.9,1.7-3.2,3.4-6.2,3.4c-4.6,0-7.6-3.7-7.6-7.8s3-7.8,7.6-7.8c3,0,5.4,1.7,6.2,3.4
	v-3L350.3,350.3L350.3,350.3z M342.2,363.6c2.9,0,5.8-2.1,5.8-5.9s-2.9-5.9-5.8-5.9c-3.5,0-5.7,2.7-5.7,5.9S338.7,363.6,342.2,363.6
	z"/>
<path class="st0" d="M363.3,352.4h-0.6c-3.3,0-5.3,2.2-5.3,5.7v7h-2.4v-14.9h2.3v3.7c0.7-2.7,3-3.8,6-3.8V352.4L363.3,352.4z"/>
<path class="st0" d="M377,350.3h2.4l-6.4,14.9h-1.9l-6.4-14.9h2.4l5,12.1L377,350.3L377,350.3z"/>
<path class="st0" d="M397.1,350.3v14.9h-2.3v-3c-0.9,1.7-3.2,3.4-6.2,3.4c-4.6,0-7.6-3.7-7.6-7.8s3-7.8,7.6-7.8c3,0,5.4,1.7,6.2,3.4
	v-3L397.1,350.3L397.1,350.3z M389,363.6c2.9,0,5.8-2.1,5.8-5.9s-2.9-5.9-5.8-5.9c-3.5,0-5.7,2.7-5.7,5.9S385.5,363.6,389,363.6z"/>
<path class="st0" d="M410.2,352.4h-0.6c-3.3,0-5.3,2.2-5.3,5.7v7h-2.4v-14.9h2.3v3.7c0.7-2.7,3-3.8,6-3.8V352.4L410.2,352.4z"/>
<path class="st0" d="M425.5,343.1h2.4v22.1h-2.3v-3c-0.9,1.7-3.2,3.4-6.2,3.4c-4.6,0-7.6-3.7-7.6-7.8s3-7.8,7.6-7.8
	c3,0,5.3,1.7,6.1,3.4V343.1L425.5,343.1z M419.8,363.6c2.9,0,5.8-2.1,5.8-5.9s-2.9-5.9-5.8-5.9c-3.5,0-5.7,2.7-5.7,5.9
	S416.3,363.6,419.8,363.6z"/>
<path class="st0" d="M457.8,357.2c0,4.9-3.6,8.4-8.8,8.4s-8.8-3.5-8.8-8.4V344h2.4v13.3c0,3.7,2.6,6.2,6.4,6.2s6.4-2.5,6.4-6.2V344
	h2.4V357.2z"/>
<path class="st0" d="M465.3,365.2h-2.4v-14.9h2.3v2.9c0.8-2.1,2.9-3.3,5.6-3.3c3.6,0,5.9,2.8,5.9,6.7v8.5h-2.4v-8.1
	c0-2.9-1.3-5.1-4.3-5.1c-2.8,0-4.8,2.2-4.8,5L465.3,365.2L465.3,365.2z"/>
<path class="st0" d="M482.6,343.7c0.9,0,1.5,0.7,1.5,1.5s-0.6,1.5-1.5,1.5s-1.5-0.7-1.5-1.5S481.7,343.7,482.6,343.7z M481.4,365.2
	v-14.9h2.4v14.9H481.4z"/>
<path class="st0" d="M499.2,350.3h2.4l-6.4,14.9h-1.9l-6.4-14.9h2.4l5,12.1L499.2,350.3z"/>
<path class="st0" d="M505.5,358.7c0.4,3.1,2.4,5,5.5,5c2.3,0,4.1-1.1,5-2.5h2.2c-1.1,2.5-3.8,4.4-7.2,4.4c-4.9,0-7.9-3.5-7.9-7.8
	c0-4.3,3.2-7.8,7.8-7.8c4.6,0,7.6,3.4,7.6,7.6v1.1L505.5,358.7L505.5,358.7z M505.4,356.9h10.9c-0.2-3-2.2-5.2-5.4-5.2
	C508,351.7,505.7,353.8,505.4,356.9L505.4,356.9z"/>
<path class="st0" d="M530.6,352.4h-0.6c-3.3,0-5.3,2.2-5.3,5.7v7h-2.4v-14.9h2.3v3.7c0.7-2.7,3.1-3.8,6-3.8V352.4L530.6,352.4z"/>
<path class="st0" d="M534.4,360.9c0.3,1.8,1.7,2.8,3.7,2.8s3.4-1,3.4-2.6c0-1.3-0.8-2-2.3-2.4l-2.4-0.7c-2.2-0.6-3.8-1.7-3.8-4
	c0-2.4,2.1-4.1,4.9-4.1s4.6,1.7,5,4.2h-2.1c-0.2-1.3-1.1-2.4-2.9-2.4c-1.7,0-2.8,0.9-2.8,2.3s0.8,1.8,2.3,2.2l2.7,0.8
	c2.3,0.7,3.5,1.9,3.5,4.1c0,2.8-2.7,4.5-5.6,4.5s-5.3-1.5-5.8-4.6L534.4,360.9L534.4,360.9z"/>
<path class="st0" d="M548.6,343.7c0.9,0,1.5,0.7,1.5,1.5s-0.6,1.5-1.5,1.5s-1.5-0.7-1.5-1.5S547.6,343.7,548.6,343.7z M547.4,365.2
	v-14.9h2.4v14.9H547.4z"/>
<path class="st0" d="M555.9,345.6h2.4v4.7h4.5v2h-4.5v8.3c0,2.1,0.7,3,2.5,3c0.7,0,1.2-0.1,1.8-0.3v1.9c-0.4,0.2-1.4,0.4-2.3,0.4
	c-3.5,0-4.4-2.1-4.4-5.7v-7.6h-3.1v-2h3.1L555.9,345.6L555.9,345.6z"/>
<path class="st0" d="M576.4,350.3h2.5l-6.2,14.5l-2.8,6.6h-2.4l2.9-6.8l-6.1-14.3h2.4l4.9,11.9L576.4,350.3L576.4,350.3z"/>
</svg>
